<svg width="29" height="30" viewBox="0 0 29 30" fill="none" xmlns="http://www.w3.org/2000/svg">
    <g filter="url(#filter0_d)">
        <path fillRule="evenodd" clipRule="evenodd"
            d="M6.87203 2H10.252C11.662 2 12.792 3.15 12.792 4.561V7.97C12.792 9.39 11.662 10.53 10.252 10.53H6.87203C5.47203 10.53 4.33203 9.39 4.33203 7.97V4.561C4.33203 3.15 5.47203 2 6.87203 2ZM6.87203 13.4697H10.252C11.662 13.4697 12.792 14.6107 12.792 16.0307V19.4397C12.792 20.8497 11.662 21.9997 10.252 21.9997H6.87203C5.47203 21.9997 4.33203 20.8497 4.33203 19.4397V16.0307C4.33203 14.6107 5.47203 13.4697 6.87203 13.4697ZM21.7921 2H18.4121C17.0021 2 15.8721 3.15 15.8721 4.561V7.97C15.8721 9.39 17.0021 10.53 18.4121 10.53H21.7921C23.1921 10.53 24.3321 9.39 24.3321 7.97V4.561C24.3321 3.15 23.1921 2 21.7921 2ZM18.4121 13.4697H21.7921C23.1921 13.4697 24.3321 14.6107 24.3321 16.0307V19.4397C24.3321 20.8497 23.1921 21.9997 21.7921 21.9997H18.4121C17.0021 21.9997 15.8721 20.8497 15.8721 19.4397V16.0307C15.8721 14.6107 17.0021 13.4697 18.4121 13.4697Z"
            fill="#808191" />
    </g>
    <defs>
        <filter id="filter0_d" x="-1.66797" y="0" width="32" height="32" filterUnits="userSpaceOnUse"
            color-interpolation-filters="sRGB">
            <feFlood flood-opacity="0" result="BackgroundImageFix" />
            <feColorMatrix in="SourceAlpha" type="matrix" values="0 0 0 0 0 0 0 0 0 0 0 0 0 0 0 0 0 0 127 0" />
            <feOffset dy="4" />
            <feGaussianBlur stdDeviation="2" />
            <feColorMatrix type="matrix" values="0 0 0 0 0 0 0 0 0 0 0 0 0 0 0 0 0 0 0.25 0" />
            <feBlend mode="normal" in2="BackgroundImageFix" result="effect1_dropShadow" />
            <feBlend mode="normal" in="SourceGraphic" in2="effect1_dropShadow" result="shape" />
        </filter>
    </defs>
</svg>