<svg width="20" height="21" viewBox="0 0 20 21" fill="none" xmlns="http://www.w3.org/2000/svg">
    <path fill-rule="evenodd" clip-rule="evenodd" d="M1.74491 5.0133C1.74533 4.35374 2.28034 3.81812 2.9399 3.81695L7.09674 3.80959C7.75629 3.80843 8.29064 4.34216 8.29022 5.00172C8.28981 5.66128 7.7548 6.19691 7.09524 6.19807L2.9384 6.20543C2.27884 6.2066 1.7445 5.67286 1.74491 5.0133ZM1.75323 14.5762C1.75364 13.9167 2.28866 13.3811 2.94821 13.3799L7.10505 13.3725C7.7646 13.3714 8.29895 13.9051 8.29853 14.5647C8.29812 15.2242 7.76311 15.7598 7.10355 15.761L2.94672 15.7684C2.28716 15.7695 1.75282 15.2358 1.75323 14.5762ZM1.3067 8.60178C0.647071 8.60294 0.112001 9.13862 0.111585 9.79825C0.111173 10.4579 0.645572 10.9917 1.3052 10.9905L4.64314 10.9846C5.30277 10.9835 5.83784 10.4478 5.83825 9.78817C5.83867 9.12853 5.30427 8.59474 4.64464 8.5959L1.3067 8.60178Z" fill="white"></path>
    <path d="M10.2355 4.29839C11.2416 3.89853 12.338 3.74882 13.4217 3.86333C14.5054 3.97784 15.5407 4.35281 16.4304 4.95299C17.32 5.55316 18.0347 6.35881 18.5073 7.29418C18.9799 8.22956 19.1948 9.26392 19.1318 10.3C19.0689 11.3361 18.7301 12.3399 18.1474 13.2169C17.5647 14.094 16.7572 14.8155 15.8008 15.3137C14.8444 15.8119 13.7706 16.0703 12.6803 16.0647C11.59 16.0591 10.519 15.7896 9.56811 15.2816L11.103 12.6778C11.5899 12.9379 12.1383 13.0759 12.6966 13.0788C13.2549 13.0816 13.8047 12.9493 14.2944 12.6942C14.7841 12.4391 15.1976 12.0697 15.496 11.6206C15.7944 11.1715 15.9679 10.6575 16.0001 10.127C16.0323 9.59644 15.9223 9.0668 15.6803 8.58784C15.4383 8.10888 15.0723 7.69635 14.6168 7.38903C14.1613 7.08172 13.6311 6.88971 13.0762 6.83108C12.5213 6.77244 11.9599 6.8491 11.4447 7.05385L10.2355 4.29839Z" fill="#E44757"></path>
</svg>