<svg width="25" height="24" viewBox="0 0 25 24" fill="none" xmlns="http://www.w3.org/2000/svg">
        <path
            d="M5.12641 7.05575C5.12641 5.80675 6.13941 4.79375 7.38741 4.79375H8.41641C9.01241 4.79375 9.58541 4.55775 10.0094 4.13675L10.7284 3.41675C11.6094 2.53175 13.0414 2.52775 13.9264 3.40875L13.9354 3.41675L14.6554 4.13675C15.0784 4.55775 15.6514 4.79375 16.2484 4.79375H17.2764C18.5254 4.79375 19.5384 5.80675 19.5384 7.05575V8.08275C19.5384 8.68075 19.7744 9.25275 20.1954 9.67675L20.9154 10.3967C21.8004 11.2777 21.8054 12.7087 20.9244 13.5947L20.9154 13.6037L20.1954 14.3237C19.7744 14.7457 19.5384 15.3197 19.5384 15.9157V16.9447C19.5384 18.1937 18.5254 19.2057 17.2764 19.2057H16.2484C15.6514 19.2057 15.0784 19.4427 14.6554 19.8637L13.9354 20.5827C13.0554 21.4687 11.6234 21.4727 10.7374 20.5917C10.7344 20.5887 10.7314 20.5857 10.7284 20.5827L10.0094 19.8637C9.58541 19.4427 9.01241 19.2057 8.41641 19.2057H7.38741C6.13941 19.2057 5.12641 18.1937 5.12641 16.9447V15.9157C5.12641 15.3197 4.88941 14.7457 4.46841 14.3237L3.74941 13.6037C2.86341 12.7227 2.85941 11.2907 3.74041 10.4057L3.74941 10.3967L4.46841 9.67675C4.88941 9.25275 5.12641 8.68075 5.12641 8.08275V7.05575"
            stroke="#808191" strokeWidth="1.5" strokeLinecap="round" strokeLinejoin="round" />
        <path opacity="0.5" d="M9.76221 14.5694L14.9022 9.42944" stroke="#808191" strokeWidth="1.5" strokeLinecap="round"
            strokeLinejoin="round" />
        <path opacity="0.5"
            d="M14.8989 15.3223C14.6989 15.3223 14.5089 15.2423 14.3689 15.1023C14.2989 15.0323 14.2489 14.9423 14.2089 14.8523C14.1689 14.7623 14.1489 14.6733 14.1489 14.5723C14.1489 14.4723 14.1689 14.3723 14.2089 14.2823C14.2489 14.1923 14.2989 14.1123 14.3689 14.0423C14.6489 13.7623 15.1489 13.7623 15.4289 14.0423C15.4989 14.1123 15.5589 14.1923 15.5989 14.2823C15.6289 14.3723 15.6489 14.4723 15.6489 14.5723C15.6489 14.6733 15.6289 14.7623 15.5989 14.8523C15.5589 14.9423 15.4989 15.0323 15.4289 15.1023C15.2889 15.2423 15.0989 15.3223 14.8989 15.3223Z"
            fill="#808191" />
        <path opacity="0.5"
            d="M9.75879 10.1826C9.65879 10.1826 9.56879 10.1616 9.47879 10.1216C9.38879 10.0816 9.29879 10.0326 9.22879 9.96264C9.15879 9.88264 9.10879 9.80264 9.06879 9.71264C9.02879 9.62164 9.00879 9.53264 9.00879 9.43264C9.00879 9.33164 9.02879 9.23264 9.06879 9.14264C9.10879 9.05264 9.15879 8.96264 9.22879 8.90264C9.51879 8.62164 10.0088 8.62164 10.2888 8.90264C10.4288 9.04164 10.5088 9.23264 10.5088 9.43264C10.5088 9.53264 10.4988 9.62164 10.4588 9.71264C10.4188 9.80264 10.3588 9.88264 10.2888 9.96264C10.2188 10.0326 10.1388 10.0816 10.0488 10.1216C9.95879 10.1616 9.85879 10.1826 9.75879 10.1826Z"
            fill="#808191" />
    </svg>